<svg width="35" height="35" viewBox="0 0 35 35" fill="none" xmlns="http://www.w3.org/2000/svg">
<path d="M28.1177 26.57C28.2193 26.6717 28.2999 26.7923 28.3549 26.9251C28.4099 27.0579 28.4382 27.2002 28.4382 27.3439C28.4382 27.4876 28.4099 27.6299 28.3549 27.7627C28.2999 27.8954 28.2193 28.0161 28.1177 28.1177C28.0161 28.2193 27.8954 28.2999 27.7627 28.3549C27.6299 28.4099 27.4876 28.4382 27.3439 28.4382C27.2002 28.4382 27.0579 28.4099 26.9251 28.3549C26.7923 28.2999 26.6717 28.2193 26.57 28.1177L17.5001 19.0464L8.4302 28.1177C8.22497 28.3229 7.94661 28.4382 7.65637 28.4382C7.36613 28.4382 7.08777 28.3229 6.88254 28.1177C6.67731 27.9125 6.56201 27.6341 6.56201 27.3439C6.56201 27.0536 6.67731 26.7753 6.88254 26.57L15.9538 17.5001L6.88254 8.4302C6.67731 8.22497 6.56201 7.94661 6.56201 7.65637C6.56201 7.36613 6.67731 7.08777 6.88254 6.88254C7.08777 6.67731 7.36613 6.56201 7.65637 6.56201C7.94661 6.56201 8.22497 6.67731 8.4302 6.88254L17.5001 15.9538L26.57 6.88254C26.7753 6.67731 27.0536 6.56201 27.3439 6.56201C27.6341 6.56201 27.9125 6.67731 28.1177 6.88254C28.3229 7.08777 28.4382 7.36613 28.4382 7.65637C28.4382 7.94661 28.3229 8.22497 28.1177 8.4302L19.0464 17.5001L28.1177 26.57Z" fill="#ffffff"/>
</svg>
