<svg width="40" height="40" viewBox="0 0 40 40" fill="none" xmlns="http://www.w3.org/2000/svg">
<path d="M36.65 10.9117C36.6345 10.1967 36.5772 9.48331 36.4783 8.77504C36.3588 8.14515 36.1554 7.53414 35.8733 6.95837C35.2567 5.74034 34.2677 4.75071 33.05 4.13337C32.4778 3.85291 31.8708 3.65001 31.245 3.53004C30.5313 3.42943 29.8123 3.37099 29.0917 3.35504C28.7867 3.34337 28.3917 3.33837 28.2083 3.33837L11.795 3.33337C11.6117 3.33337 11.2167 3.33837 10.9117 3.35004C10.1967 3.36554 9.48327 3.42286 8.775 3.52171C8.14511 3.64121 7.5341 3.84469 6.95834 4.12671C5.7403 4.74333 4.75068 5.73237 4.13334 6.95004C3.85288 7.52221 3.64998 8.12923 3.53 8.75504C3.42883 9.46872 3.36984 10.1877 3.35334 10.9084C3.34334 11.2134 3.33667 11.6084 3.33667 11.7917L3.33334 28.205C3.33334 28.3884 3.33834 28.7834 3.35 29.0884C3.3655 29.8033 3.42282 30.5168 3.52167 31.225C3.64117 31.8549 3.84465 32.4659 4.12667 33.0417C4.74329 34.2597 5.73233 35.2494 6.95 35.8667C7.52217 36.1472 8.12919 36.3501 8.755 36.47C9.46872 36.5707 10.1877 36.6291 10.9083 36.645C11.2133 36.6567 11.6083 36.6617 11.7917 36.6617L28.205 36.665C28.3883 36.665 28.7833 36.66 29.0883 36.6484C29.8033 36.6329 30.5167 36.5756 31.225 36.4767C31.8549 36.3572 32.4659 36.1537 33.0417 35.8717C34.2603 35.2554 35.2506 34.2663 35.8683 33.0484C36.1488 32.4762 36.3517 31.8692 36.4717 31.2434C36.5728 30.5297 36.6318 29.8107 36.6483 29.09C36.6583 28.785 36.665 28.39 36.665 28.2067L36.6667 11.795C36.6667 11.6117 36.6617 11.2167 36.65 10.9117ZM20.3617 31.595H20.3567C18.3725 31.5965 16.4199 31.099 14.6783 30.1484L8.37834 31.8L10.065 25.645C8.75909 23.3789 8.23729 20.7452 8.5805 18.1523C8.92371 15.5595 10.1128 13.1523 11.9633 11.3039C13.8138 9.45559 16.2225 8.26941 18.8157 7.92928C21.409 7.58916 24.0421 8.11409 26.3067 9.4227C28.5712 10.7313 30.3408 12.7505 31.3411 15.1671C32.3413 17.5838 32.5163 20.263 31.839 22.7892C31.1616 25.3155 29.6697 27.5477 27.5946 29.1398C25.5195 30.7319 22.9772 31.5949 20.3617 31.595Z" fill="black"/>
<path d="M20.3667 9.83504C18.6018 9.83452 16.869 10.3068 15.3485 11.2029C13.8281 12.0989 12.5754 13.3859 11.7208 14.93C10.8662 16.4742 10.4409 18.2191 10.4891 19.9833C10.5374 21.7475 11.0573 23.4665 11.995 24.9617L12.23 25.335L11.2317 28.9784L14.97 27.9984L15.33 28.2117C16.8512 29.1144 18.5878 29.59 20.3567 29.5884H20.3617C22.9813 29.5888 25.4939 28.5486 27.3466 26.6965C29.1993 24.8444 30.2404 22.3322 30.2408 19.7125C30.2413 17.0929 29.201 14.5803 27.349 12.7276C25.4969 10.8749 22.9847 9.83382 20.365 9.83337L20.3667 9.83504ZM26.1733 23.9517C25.9552 24.3128 25.6645 24.6246 25.3197 24.8676C24.9749 25.1106 24.5834 25.2794 24.17 25.3634C23.5461 25.4706 22.9058 25.4306 22.3 25.2467C21.7252 25.0685 21.1605 24.8593 20.6083 24.62C18.5579 23.591 16.8102 22.0466 15.5367 20.1384C14.8417 19.2551 14.42 18.1881 14.3233 17.0684C14.3156 16.6063 14.4041 16.1476 14.5831 15.7215C14.7622 15.2955 15.0279 14.9113 15.3633 14.5934C15.4629 14.4806 15.5845 14.3894 15.7206 14.3255C15.8568 14.2616 16.0046 14.2262 16.155 14.2217C16.3517 14.2217 16.55 14.2217 16.7233 14.2317C16.9067 14.24 17.15 14.1617 17.39 14.7417C17.64 15.335 18.2333 16.7967 18.3067 16.945C18.3535 17.0229 18.3802 17.1112 18.3846 17.2019C18.3889 17.2926 18.3708 17.383 18.3317 17.465C18.2572 17.6435 18.1573 17.8103 18.035 17.96C17.885 18.1334 17.7233 18.3467 17.59 18.48C17.44 18.6284 17.2867 18.7884 17.4583 19.085C17.9049 19.848 18.4614 20.541 19.11 21.1417C19.8151 21.7669 20.6232 22.2654 21.4983 22.615C21.795 22.765 21.9683 22.7384 22.1417 22.54C22.315 22.3417 22.8833 21.6734 23.0817 21.3767C23.28 21.08 23.4767 21.13 23.7483 21.2284C24.02 21.3267 25.4817 22.045 25.7783 22.195C26.075 22.345 26.2733 22.4167 26.3467 22.54C26.4268 23.0175 26.3666 23.5079 26.1733 23.9517Z" fill="black"/>
</svg>
