<svg width="32" height="32" viewBox="0 0 32 32" fill="none" xmlns="http://www.w3.org/2000/svg">
<g clip-path="url(#clip0_97_129)">
<path d="M15.8 12C16.2 12 16.4 11.6 16.4 11V8.19995C16.4 7.59995 16.2 7.19995 15.8 7.19995C15.4 7.19995 15.2 7.59995 15.2 8.19995V11C15.2 11.6 15.4 12 15.8 12ZM14.2 23.7999C14 24.1999 13.6 24.4 13.4 24.4C13.2 24.4 13.2 24.4 13.2 24.2V18.8H12V24C12 24.4 12 24.8 12.2 25C12.4 25.4 12.6 25.4 13 25.4C13.4 25.4 13.8 25.2 14.4 24.6V25.4H15.6V18.8H14.2V23.7999ZM7.60001 17.8H9.00001V25.4H10.4V17.8H11.8V16.4H7.60001V17.8ZM18.8 18.6C18.4 18.6 18 19 17.6 19.4V16.4H16.4V25.2H17.6V24.6C18 25 18.4 25.4 18.8 25.4C19.2 25.4 19.6 25.2 19.8 24.6C19.8 24.4 20 23.8 20 23.2V20.6C20 20 20 19.6 19.8 19.2C19.6 19 19.4 18.6 18.8 18.6ZM18.8 23.4C18.8 24 18.6 24.2 18.2 24.2C18 24.2 17.8 24.2 17.6 24V20C17.8 19.8 18 19.8 18.2 19.8C18.6 19.8 18.8 20.2 18.8 20.8V23.4ZM22.6 18.6C22 18.6 21.6 18.8 21.2 19.2C21 19.6 20.8 20 20.8 20.8V23.2C20.8 24 21 24.3999 21.2 24.7999C21.6 25.1999 22 25.4 22.6 25.4C23.2 25.4 23.8 25.2 24 24.6C24.2 24.4 24.2 24.1999 24.2 23.7999V22.8H23V23.6C23 24 22.8 24 22.4 24C22 24 21.8 23.6 21.8 23V21.8H24.2V20.4C24.2 19.6 24 19.2 23.8 18.8C23.8 19 23.2 18.6 22.6 18.6ZM23.2 21.2H22V20.6C22 20 22.2 19.6 22.6 19.6C23 19.6 23.2 20 23.2 20.6V21.2Z" fill="black"/>
<path d="M0 0V32H32V0H0ZM18.6 6.2H19.8V11.6C19.8 11.8 19.8 12 20 12C20.2 12 20.4 11.8 20.8 11.4V6.2H22V12.8H20.8V12.2C20.4 12.8 19.8 13 19.4 13C19 13 18.8 12.8 18.6 12.6C18.6 12.4 18.4 12 18.4 11.6V6.2H18.6ZM14 8.4C14 7.8 14 7.2 14.4 6.8C14.8 6.4 15.2 6.2 15.8 6.2C16.4 6.2 16.8 6.4 17.2 6.8C17.4 7.2 17.6 7.6 17.6 8.4V10.8C17.6 11.6 17.4 12 17.2 12.4C16.8 12.8 16.4 13 15.8 13C15.2 13 14.8 12.8 14.4 12.4C14 12 14 11.6 14 10.8V8.4ZM10.6 4L11.6 7.6L12.6 4H14L12.4 9.4V13H11V9.4C10.8 8.6 10.6 7.8 10.2 6.4C9.8 5.6 9.6 4.8 9.2 4H10.6ZM25.6 25.8C25.4 26.8 24.4 27.6 23.4 27.8C21 28 18.4 28 16 28C13.6 28 11 28 8.6 27.8C7.6 27.6 6.6 27 6.4 25.8C6 24.2 6 22.6 6 21C6 19.6 6 18 6.4 16.4C6.6 15.4 7.6 14.6 8.6 14.4C11 14.2 13.6 14.2 16 14.2C18.4 14.2 21 14.2 23.4 14.4C24.4 14.6 25.4 15.2 25.6 16.4C26 18 26 19.6 26 21C26 22.6 26 24.2 25.6 25.8Z" fill="black"/>
</g>
<defs>
<clipPath id="clip0_97_129">
<rect width="32" height="32" fill="white"/>
</clipPath>
</defs>
</svg>
